<svg xmlns="http://www.w3.org/2000/svg" viewBox="0 0 32 32"><rect fill="#041226" width="32" height="32"/><path fill="#fff" d="m3,2H1v2h2v-2Zm2,4v-2h-2v2h2Zm2,2v-2h-2v2h2Zm18,14v-6h-6v2h4v4h-4v-4h-6v4h-4v-4h4v-2h-6v8h4v4h2v-2h2v2h2v-2h2v2h2v-4h4v-2Zm-8,2h-2v-2h2v2ZM3,10h2v-2h-2v2Zm2,14h-2v2h2v-2Zm0,4h2v-2h-2v2Zm-2-2H1v4h4v-2h-2v-2Zm26-2h-2v2h2v-2Zm-4,2v2h2v-2h-2Zm4,2h-2v2h4v-4h-2v2ZM9,4h-2v2h2v-2Zm20-2v2h2v-2h-2Zm-2,4h2v-2h-2v2Zm-2,2h2v-2h-2v2Zm4,2v-2h-2v2h2Zm-6-6v2h2v-2h-2ZM7,12h4v-2h-4v2Zm-2,2h2v-2h-2v2Zm22,0v-2h-2v2h2Zm-10,0v-2h-2v2h2Zm2-4h-2v2h2v-2Zm6,2v-2h-4v2h4Zm-12-4h-2v2h2v-2Zm2,4v-2h-2v2h2Zm6-4h-2v2h2v-2Z"/></svg>