<?xml version="1.0" encoding="UTF-8" standalone="no"?>
<!DOCTYPE svg PUBLIC "-//W3C//DTD SVG 1.1//EN" "http://www.w3.org/Graphics/SVG/1.1/DTD/svg11.dtd">
<svg width="100%" height="100%" viewBox="0 0 596 596" version="1.1" xmlns="http://www.w3.org/2000/svg" xmlns:xlink="http://www.w3.org/1999/xlink" xml:space="preserve" xmlns:serif="http://www.serif.com/" style="fill-rule:evenodd;clip-rule:evenodd;stroke-linejoin:round;stroke-miterlimit:2;">
    <g id="Capa-1" serif:id="Capa 1" transform="matrix(0.861898,0,0,0.861898,41.1045,41.1045)">
        <g transform="matrix(1.16023,0,0,1.14415,-47.6907,-38.1172)">
            <rect x="0" y="-8.367" width="595.276" height="603.643" style="fill:white;"/>
        </g>
        <g transform="matrix(1.09089,0,0,1.07784,-12.8562,0.310191)">
            <g id="g998">
                <g id="g982">
                    <g id="g1046">
                        <g id="g1193">
                            <g id="g987">
                                <rect id="rect833-4" x="241.996" y="60.791" width="255.118" height="255.118" style="fill:rgb(60,179,113);"/>
                                <g id="text892" transform="matrix(0.989458,0,0,1.01065,0,0)">
                                    <path id="path855" d="M339.512,136.078C334.219,129.078 322.437,118.149 313.387,110.636L305.191,118.32C314.241,126.516 325.511,137.957 330.804,145.128L339.512,136.078ZM331.658,233.407L331.658,159.301L296.141,159.301L296.141,171.424L319.705,171.424L319.705,233.236C319.705,240.237 316.119,243.994 313.729,245.701C315.778,248.433 319.022,253.897 320.047,256.971C322.608,253.727 327.047,250.312 355.392,230.846C354.197,228.285 352.66,223.333 351.977,220.088L331.658,233.407ZM426.938,213.771L426.938,244.335L369.053,244.335L369.053,213.771L426.938,213.771ZM356.929,262.094L369.053,262.094L369.053,255.434L426.938,255.434L426.938,261.581L439.402,261.581L439.402,202.672L356.929,202.672L356.929,262.094ZM421.303,153.837C420.62,161.008 419.766,169.546 418.741,177.059L383.908,177.059C385.616,170.229 387.494,162.203 389.372,153.837L421.303,153.837ZM430.865,177.059C432.231,166.131 433.597,153.666 434.28,142.908L425.23,142.055L423.352,142.738L391.763,142.738C393.299,136.249 394.665,129.59 395.861,123.613L445.037,123.613L445.037,112.173L348.562,112.173L348.562,123.613L382.883,123.613C381.859,129.59 380.664,136.249 379.127,142.738L354.88,142.738L354.88,153.837L376.566,153.837C374.687,162.203 372.809,170.229 370.931,177.059L342.757,177.059L342.757,188.67L450.843,188.67L450.843,177.059L430.865,177.059Z" style="fill:rgb(228,244,234);fill-rule:nonzero;"/>
                                </g>
                            </g>
                            <g id="g1031">
                                <rect id="rect833" x="72.134" y="235.798" width="255.118" height="255.118" style="fill:rgb(231,245,237);"/>
                                <g id="path901" transform="matrix(0.93841,0.16603,-0.170423,0.986702,107.544,207.359)">
                                    <path d="M176.35,21.26L186.425,46.501L213.544,48.283L192.652,65.665L199.337,92.008L176.35,77.51L153.362,92.008L160.048,65.665L139.155,48.283L166.275,46.501L176.35,21.26Z" style="fill:rgb(60,179,113);fill-rule:nonzero;"/>
                                </g>
                                <g id="text965" transform="matrix(0.950614,0,0,0.950614,187.344,-80.1777)">
                                    <path id="path1024" d="M-36.492,526.379C-16.926,518.531 13.295,528.408 52.558,526.061L56.052,525.852C56.717,525.812 58.371,525.546 61.013,525.054C66.431,520.723 71.266,520.601 75.517,524.688C79.769,528.775 79.891,532.109 75.884,537.692C72.482,542.236 59.468,545.185 36.842,546.538L26.361,547.165C3.109,549.223 -16.943,539.071 -32.184,546.661C-38.014,549.681 -44.48,551.74 -51.582,555.838C-56.826,557.487 -60.888,556.562 -63.769,553.061C-66.297,549.873 -66.37,545.87 -63.986,541.052C-52.854,515.008 -45.586,491.365 -42.181,470.124C-38.444,448.863 -35.672,430.999 -33.865,416.532C-31.746,401.712 -28.895,385.179 -25.311,366.933C-22.654,361.097 -18.781,358.862 -13.69,360.227C-8.267,361.573 -5.709,365.26 -6.016,371.289C-11.179,396.642 -15.656,422.289 -19.448,448.228C-22.927,473.815 -28.608,501.865 -36.492,526.379L-36.492,526.379Z" style="fill:rgb(60,179,113);fill-rule:nonzero;"/>
                                </g>
                            </g>
                            <g id="g1175">
                                <g id="g1163">
                                    <path id="rect968-6" d="M396.584,283.704L363.567,315.948L411.17,315.948C416.952,315.948 422.596,315.377 428.053,314.299L396.723,283.704L396.584,283.704Z" style="fill:rgb(228,244,234);fill-rule:nonzero;"/>
                                    <g id="rect860" transform="matrix(0.198336,0,0,0.200738,61.5091,50.0382)">
                                        <path d="M1584.72,1323L1584.72,1783.68L1798.99,1568.83L1798.99,1323L1584.72,1323Z" style="fill:rgb(228,244,234);fill-rule:nonzero;"/>
                                    </g>
                                </g>
                                <g id="g1167">
                                    <g id="rect968" transform="matrix(0.198336,0,0,0.200738,61.5091,50.0382)">
                                        <path d="M1339.86,1511.09L1179.3,1677.49L1179.3,1678.19L1334.04,1838.56C1337.85,1815.66 1339.86,1792.14 1339.86,1768.15L1339.86,1511.09Z" style="fill:rgb(60,179,113);fill-rule:nonzero;"/>
                                    </g>
                                    <g id="rect860-3" transform="matrix(0.198336,0,0,0.200738,61.5091,50.0382)">
                                        <path d="M1338.3,1569.41L1338.3,1783.68L1584.72,1783.68L1798.41,1569.41L1338.3,1569.41Z" style="fill:rgb(60,179,113);fill-rule:nonzero;"/>
                                    </g>
                                </g>
                            </g>
                        </g>
                    </g>
                </g>
            </g>
        </g>
    </g>
</svg>
